<svg xmlns="http://www.w3.org/2000/svg" xmlns:xlink="http://www.w3.org/1999/xlink" width="500"
  zoomAndPan="magnify" viewBox="0 0 375 374.999991" height="500" preserveAspectRatio="xMidYMid meet"
  version="1.0">
  <defs>
    <g />
    <clipPath id="00292dd7aa">
      <path
        d="M 75.710938 75.710938 L 299.289062 75.710938 L 299.289062 82.417969 L 75.710938 82.417969 Z M 292.65625 82.417969 L 299.289062 82.417969 L 299.289062 292.65625 L 292.65625 292.65625 Z M 75.710938 82.417969 L 82.417969 82.417969 L 82.417969 292.65625 L 75.710938 292.65625 Z M 75.710938 292.65625 L 299.289062 292.65625 L 299.289062 299.289062 L 75.710938 299.289062 Z M 75.710938 292.65625 "
        clip-rule="nonzero" />
    </clipPath>
  </defs>
  <g clip-path="url(#00292dd7aa)">
    <path fill="#f8fafc"
      d="M 75.710938 75.710938 L 299.289062 75.710938 L 299.289062 299.289062 L 75.710938 299.289062 Z M 75.710938 75.710938 "
      fill-opacity="1" fill-rule="nonzero" />
  </g>
  <g fill="#f8fafc" fill-opacity="1">
    <g transform="translate(85.92585, 175.499988)">
      <g>
        <path
          d="M 30.9375 -42.542969 C 36.042969 -42.542969 41.304688 -40.453125 43.855469 -34.882812 L 56.617188 -34.882812 C 52.984375 -45.789062 42.542969 -53.371094 30.9375 -53.371094 C 16.089844 -53.371094 3.867188 -41.148438 3.867188 -26.296875 C 3.867188 -11.449219 16.089844 0.773438 30.9375 0.773438 C 45.945312 0.773438 57.933594 -11.371094 57.933594 -26.296875 L 57.933594 -28.078125 L 32.023438 -28.078125 L 32.023438 -19.335938 L 45.402344 -19.335938 C 42.542969 -11.371094 36.042969 -9.746094 30.9375 -9.746094 C 22.585938 -9.746094 15.625 -17.25 15.625 -26.144531 C 15.625 -35.039062 22.585938 -42.542969 30.9375 -42.542969 Z M 30.9375 -42.542969 " />
      </g>
    </g>
  </g>
  <g fill="#f8fafc" fill-opacity="1">
    <g transform="translate(146.563408, 175.499988)">
      <g>
        <path
          d="M 35.117188 -10.519531 L 16.242188 -10.519531 L 16.242188 -21.117188 L 34.34375 -21.117188 L 34.34375 -31.636719 L 16.242188 -31.636719 L 16.242188 -42.078125 L 35.117188 -42.078125 L 35.117188 -52.597656 L 4.640625 -52.597656 L 4.640625 0 L 35.117188 0 Z M 35.117188 -10.519531 " />
      </g>
    </g>
  </g>
  <g fill="#f8fafc" fill-opacity="1">
    <g transform="translate(186.318132, 175.499988)">
      <g>
        <path
          d="M 16.242188 -23.511719 L 32.871094 0 L 48.496094 0 L 27.535156 -26.296875 L 47.722656 -52.597656 L 32.871094 -52.597656 L 16.242188 -29.082031 L 16.242188 -52.597656 L 4.640625 -52.597656 L 4.640625 0 L 16.242188 0 Z M 16.242188 -23.511719 " />
      </g>
    </g>
  </g>
  <g fill="#f8fafc" fill-opacity="1">
    <g transform="translate(93.625068, 252.749983)">
      <g>
        <path
          d="M 45.945312 0 L 45.945312 -52.597656 L 34.34375 -52.597656 L 34.34375 -19.800781 L 16.242188 -52.597656 L 4.640625 -52.597656 L 4.640625 0 L 16.242188 0 L 16.242188 -32.796875 L 34.34375 0 Z M 45.945312 0 " />
      </g>
    </g>
  </g>
  <g fill="#f8fafc" fill-opacity="1">
    <g transform="translate(144.207928, 252.749983)">
      <g>
        <path
          d="M 35.117188 -10.519531 L 16.242188 -10.519531 L 16.242188 -21.117188 L 34.34375 -21.117188 L 34.34375 -31.636719 L 16.242188 -31.636719 L 16.242188 -42.078125 L 35.117188 -42.078125 L 35.117188 -52.597656 L 4.640625 -52.597656 L 4.640625 0 L 35.117188 0 Z M 35.117188 -10.519531 " />
      </g>
    </g>
  </g>
  <g fill="#f8fafc" fill-opacity="1">
    <g transform="translate(183.962652, 252.749983)">
      <g>
        <path
          d="M 26.996094 -42.078125 L 42 -42.078125 L 42 -52.597656 L 0.386719 -52.597656 L 0.386719 -42.078125 L 15.390625 -42.078125 L 15.390625 0 L 26.996094 0 Z M 26.996094 -42.078125 " />
      </g>
    </g>
  </g>
</svg>